<svg width="137" height="19" viewBox="0 0 137 19" fill="none" xmlns="http://www.w3.org/2000/svg">
<path d="M8.28419 18.312C7.11619 18.312 6.02819 18.084 5.02019 17.628C4.02019 17.172 3.14819 16.544 2.40419 15.744C1.66019 14.936 1.07619 14.008 0.652192 12.96C0.236192 11.904 0.0281916 10.776 0.0281916 9.576C0.0281916 8.312 0.252192 7.152 0.700192 6.096C1.15619 5.04 1.77619 4.124 2.56019 3.348C3.34419 2.572 4.23219 1.972 5.22419 1.548C6.22419 1.124 7.26419 0.912 8.34419 0.912C9.55219 0.912 10.7242 1.196 11.8602 1.764C13.0042 2.324 14.0122 3.192 14.8842 4.368L12.2682 5.772C11.7322 5.116 11.1162 4.628 10.4202 4.308C9.73219 3.98 9.02819 3.816 8.30819 3.816C7.60419 3.816 6.92819 3.96 6.28019 4.248C5.64019 4.536 5.06819 4.944 4.56419 5.472C4.06819 5.992 3.67619 6.608 3.38819 7.32C3.10019 8.024 2.95619 8.796 2.95619 9.636C2.95619 10.428 3.09619 11.176 3.37619 11.88C3.65619 12.576 4.04019 13.188 4.52819 13.716C5.02419 14.236 5.59619 14.644 6.24419 14.94C6.89219 15.236 7.58819 15.384 8.33219 15.384C8.82819 15.384 9.31219 15.308 9.78419 15.156C10.2642 14.996 10.7122 14.768 11.1282 14.472C11.5522 14.176 11.9282 13.816 12.2562 13.392C12.5922 12.968 12.8722 12.488 13.0962 11.952H10.0362V9.396H16.5402C16.5722 10.62 16.3802 11.768 15.9642 12.84C15.5482 13.912 14.9602 14.86 14.2002 15.684C13.4402 16.508 12.5562 17.152 11.5482 17.616C10.5402 18.08 9.45219 18.312 8.28419 18.312ZM27.6205 6H30.5485V18H27.6205L27.4885 16.512C27.1605 17.048 26.7245 17.484 26.1805 17.82C25.6445 18.148 25.0085 18.312 24.2725 18.312C23.3845 18.312 22.5525 18.144 21.7765 17.808C21.0005 17.472 20.3165 17.008 19.7245 16.416C19.1405 15.824 18.6805 15.14 18.3445 14.364C18.0165 13.588 17.8525 12.756 17.8525 11.868C17.8525 11.012 18.0085 10.208 18.3205 9.456C18.6405 8.704 19.0845 8.044 19.6525 7.476C20.2205 6.908 20.8765 6.464 21.6205 6.144C22.3645 5.824 23.1645 5.664 24.0205 5.664C24.8125 5.664 25.5205 5.84 26.1445 6.192C26.7765 6.544 27.3125 6.992 27.7525 7.536L27.6205 6ZM24.2005 15.492C24.8245 15.492 25.3765 15.336 25.8565 15.024C26.3365 14.712 26.7125 14.292 26.9845 13.764C27.2565 13.228 27.3925 12.64 27.3925 12C27.3925 11.352 27.2565 10.764 26.9845 10.236C26.7125 9.7 26.3325 9.276 25.8445 8.964C25.3645 8.652 24.8165 8.496 24.2005 8.496C23.5845 8.496 23.0205 8.656 22.5085 8.976C22.0045 9.288 21.6005 9.708 21.2965 10.236C21.0005 10.764 20.8525 11.352 20.8525 12C20.8525 12.648 21.0045 13.236 21.3085 13.764C21.6125 14.292 22.0165 14.712 22.5205 15.024C23.0325 15.336 23.5925 15.492 24.2005 15.492ZM32.9337 18V6H35.8617V7.068C36.2697 6.636 36.7577 6.296 37.3257 6.048C37.8937 5.792 38.5057 5.664 39.1617 5.664C39.9937 5.664 40.7577 5.86 41.4537 6.252C42.1577 6.644 42.7177 7.168 43.1337 7.824C43.5577 7.168 44.1177 6.644 44.8137 6.252C45.5097 5.86 46.2737 5.664 47.1057 5.664C47.9857 5.664 48.7817 5.88 49.4937 6.312C50.2137 6.736 50.7857 7.308 51.2097 8.028C51.6417 8.74 51.8577 9.536 51.8577 10.416V18H48.9297V11.196C48.9297 10.732 48.8137 10.308 48.5817 9.924C48.3577 9.532 48.0537 9.22 47.6697 8.988C47.2937 8.748 46.8697 8.628 46.3977 8.628C45.9257 8.628 45.4977 8.744 45.1137 8.976C44.7377 9.2 44.4337 9.504 44.2017 9.888C43.9697 10.272 43.8537 10.708 43.8537 11.196V18H40.9257V11.196C40.9257 10.708 40.8137 10.272 40.5897 9.888C40.3657 9.504 40.0617 9.2 39.6777 8.976C39.2937 8.744 38.8657 8.628 38.3937 8.628C37.9297 8.628 37.5057 8.748 37.1217 8.988C36.7377 9.22 36.4297 9.532 36.1977 9.924C35.9737 10.308 35.8617 10.732 35.8617 11.196V18H32.9337ZM59.3014 18.312C58.1974 18.312 57.1894 18.028 56.2774 17.46C55.3734 16.892 54.6494 16.128 54.1054 15.168C53.5694 14.208 53.3014 13.148 53.3014 11.988C53.3014 11.116 53.4574 10.3 53.7694 9.54C54.0814 8.772 54.5094 8.1 55.0534 7.524C55.6054 6.94 56.2454 6.484 56.9734 6.156C57.7014 5.828 58.4774 5.664 59.3014 5.664C60.2374 5.664 61.0934 5.864 61.8694 6.264C62.6534 6.656 63.3174 7.196 63.8614 7.884C64.4054 8.572 64.8014 9.356 65.0494 10.236C65.2974 11.116 65.3534 12.036 65.2174 12.996H56.4454C56.5574 13.444 56.7414 13.848 56.9974 14.208C57.2534 14.56 57.5774 14.844 57.9694 15.06C58.3614 15.268 58.8054 15.376 59.3014 15.384C59.8134 15.392 60.2774 15.272 60.6934 15.024C61.1174 14.768 61.4694 14.424 61.7494 13.992L64.7374 14.688C64.2494 15.752 63.5214 16.624 62.5534 17.304C61.5854 17.976 60.5014 18.312 59.3014 18.312ZM56.3494 10.8H62.2534C62.1654 10.32 61.9774 9.888 61.6894 9.504C61.4094 9.112 61.0614 8.8 60.6454 8.568C60.2294 8.336 59.7814 8.22 59.3014 8.22C58.8214 8.22 58.3774 8.336 57.9694 8.568C57.5614 8.792 57.2134 9.1 56.9254 9.492C56.6454 9.876 56.4534 10.312 56.3494 10.8Z" fill="white"/>
<path d="M71.2731 18L66.9771 1.2H70.0011L72.9291 12.684L75.8571 1.2H78.5331L81.4611 12.684L84.3771 1.2H87.4011L83.1291 18H79.8051L77.1891 7.824L74.6091 18H71.2731ZM96.8146 6H99.7426V18H96.8146L96.6826 16.512C96.3546 17.048 95.9186 17.484 95.3746 17.82C94.8386 18.148 94.2026 18.312 93.4666 18.312C92.5786 18.312 91.7466 18.144 90.9706 17.808C90.1946 17.472 89.5106 17.008 88.9186 16.416C88.3346 15.824 87.8746 15.14 87.5386 14.364C87.2106 13.588 87.0466 12.756 87.0466 11.868C87.0466 11.012 87.2026 10.208 87.5146 9.456C87.8346 8.704 88.2786 8.044 88.8466 7.476C89.4146 6.908 90.0706 6.464 90.8146 6.144C91.5586 5.824 92.3586 5.664 93.2146 5.664C94.0066 5.664 94.7146 5.84 95.3386 6.192C95.9706 6.544 96.5066 6.992 96.9466 7.536L96.8146 6ZM93.3946 15.492C94.0186 15.492 94.5706 15.336 95.0506 15.024C95.5306 14.712 95.9066 14.292 96.1786 13.764C96.4506 13.228 96.5866 12.64 96.5866 12C96.5866 11.352 96.4506 10.764 96.1786 10.236C95.9066 9.7 95.5266 9.276 95.0386 8.964C94.5586 8.652 94.0106 8.496 93.3946 8.496C92.7786 8.496 92.2146 8.656 91.7026 8.976C91.1986 9.288 90.7946 9.708 90.4906 10.236C90.1946 10.764 90.0466 11.352 90.0466 12C90.0466 12.648 90.1986 13.236 90.5026 13.764C90.8066 14.292 91.2106 14.712 91.7146 15.024C92.2266 15.336 92.7866 15.492 93.3946 15.492ZM109.024 18H105.244L100.876 5.988H103.996L107.14 14.628L110.272 5.988H113.392L109.024 18ZM119.979 18.312C118.875 18.312 117.867 18.028 116.955 17.46C116.051 16.892 115.327 16.128 114.783 15.168C114.247 14.208 113.979 13.148 113.979 11.988C113.979 11.116 114.135 10.3 114.447 9.54C114.759 8.772 115.187 8.1 115.731 7.524C116.283 6.94 116.923 6.484 117.651 6.156C118.379 5.828 119.155 5.664 119.979 5.664C120.915 5.664 121.771 5.864 122.547 6.264C123.331 6.656 123.995 7.196 124.539 7.884C125.083 8.572 125.479 9.356 125.727 10.236C125.975 11.116 126.031 12.036 125.895 12.996H117.123C117.235 13.444 117.419 13.848 117.675 14.208C117.931 14.56 118.255 14.844 118.647 15.06C119.039 15.268 119.483 15.376 119.979 15.384C120.491 15.392 120.955 15.272 121.371 15.024C121.795 14.768 122.147 14.424 122.427 13.992L125.415 14.688C124.927 15.752 124.199 16.624 123.231 17.304C122.263 17.976 121.179 18.312 119.979 18.312ZM117.027 10.8H122.931C122.843 10.32 122.655 9.888 122.367 9.504C122.087 9.112 121.739 8.8 121.323 8.568C120.907 8.336 120.459 8.22 119.979 8.22C119.499 8.22 119.055 8.336 118.647 8.568C118.239 8.792 117.891 9.1 117.603 9.492C117.323 9.876 117.131 10.312 117.027 10.8ZM131.482 18.216C130.858 18.176 130.254 18.052 129.67 17.844C129.094 17.628 128.582 17.336 128.134 16.968C127.686 16.6 127.342 16.16 127.102 15.648L129.574 14.592C129.67 14.752 129.826 14.924 130.042 15.108C130.258 15.284 130.514 15.432 130.81 15.552C131.114 15.672 131.446 15.732 131.806 15.732C132.11 15.732 132.398 15.692 132.67 15.612C132.95 15.524 133.174 15.392 133.342 15.216C133.518 15.04 133.606 14.812 133.606 14.532C133.606 14.236 133.502 14.008 133.294 13.848C133.094 13.68 132.838 13.556 132.526 13.476C132.222 13.388 131.926 13.308 131.638 13.236C130.878 13.084 130.17 12.848 129.514 12.528C128.866 12.208 128.342 11.796 127.942 11.292C127.55 10.78 127.354 10.164 127.354 9.444C127.354 8.652 127.562 7.968 127.978 7.392C128.402 6.816 128.95 6.372 129.622 6.06C130.302 5.748 131.034 5.592 131.818 5.592C132.77 5.592 133.642 5.792 134.434 6.192C135.234 6.584 135.866 7.14 136.33 7.86L134.014 9.228C133.902 9.036 133.746 8.86 133.546 8.7C133.346 8.532 133.118 8.396 132.862 8.292C132.606 8.18 132.338 8.116 132.058 8.1C131.698 8.084 131.37 8.116 131.074 8.196C130.778 8.276 130.538 8.412 130.354 8.604C130.178 8.796 130.09 9.052 130.09 9.372C130.09 9.676 130.21 9.904 130.45 10.056C130.69 10.2 130.978 10.312 131.314 10.392C131.658 10.472 131.986 10.56 132.298 10.656C133.002 10.888 133.662 11.172 134.278 11.508C134.902 11.844 135.402 12.256 135.778 12.744C136.154 13.232 136.334 13.816 136.318 14.496C136.318 15.272 136.086 15.952 135.622 16.536C135.158 17.112 134.558 17.552 133.822 17.856C133.094 18.16 132.314 18.28 131.482 18.216Z" fill="#E54666"/>
</svg>
