<svg width="1366" height="2869" viewBox="0 0 1366 2869" fill="none" xmlns="http://www.w3.org/2000/svg">
<g opacity="0.15" clip-path="url(#clip0_7_216)">
<mask id="mask0_7_216" style="mask-type:luminance" maskUnits="userSpaceOnUse" x="0" y="0" width="1366" height="10000">
<path d="M1366 0H0V10000H1366V0Z" fill="white"/>
<path d="M4 1186H20C20.5304 1186 21.0391 1186.21 21.4142 1186.59C21.7893 1186.96 22 1187.47 22 1188V1202C22 1202.53 21.7893 1203.04 21.4142 1203.41C21.0391 1203.79 20.5304 1204 20 1204H4C3.46957 1204 2.96086 1203.79 2.58579 1203.41C2.21071 1203.04 2 1202.53 2 1202V1188C2 1187.47 2.21071 1186.96 2.58579 1186.59C2.96086 1186.21 3.46957 1186 4 1186ZM10.46 1188.54C9.95 1188.54 9.54 1188.95 9.54 1189.46V1192.54C9.54 1192.78 9.63693 1193.02 9.80946 1193.19C9.982 1193.36 10.216 1193.46 10.46 1193.46H13.54C13.784 1193.46 14.018 1193.36 14.1905 1193.19C14.3631 1193.02 14.46 1192.78 14.46 1192.54V1189.46C14.46 1188.95 14.05 1188.54 13.54 1188.54H10.46ZM11.08 1189.77H12.92C13.0022 1189.77 13.0811 1189.8 13.1392 1189.86C13.1973 1189.92 13.23 1190 13.23 1190.08V1191.92C13.23 1192 13.1973 1192.08 13.1392 1192.14C13.0811 1192.2 13.0022 1192.23 12.92 1192.23H11.08C10.9978 1192.23 10.9189 1192.2 10.8608 1192.14C10.8027 1192.08 10.77 1192 10.77 1191.92V1190.08C10.77 1190 10.8027 1189.92 10.8608 1189.86C10.9189 1189.8 10.9978 1189.77 11.08 1189.77ZM4.92 1188.54C4.676 1188.54 4.442 1188.64 4.26946 1188.81C4.09693 1188.98 4 1189.22 4 1189.46V1192.54C4 1193.05 4.41 1193.46 4.92 1193.46H7.08V1192.23H5.54C5.37 1192.23 5.23 1192.09 5.23 1191.92V1190.08C5.23 1189.91 5.37 1189.77 5.54 1189.77H7.38C7.46222 1189.77 7.54107 1189.8 7.5992 1189.86C7.65734 1189.92 7.69 1190 7.69 1190.08V1193.77C7.69 1193.85 7.65734 1193.93 7.5992 1193.99C7.54107 1194.05 7.46222 1194.08 7.38 1194.08H4V1195.31H8C8.5 1195.31 8.92 1194.89 8.92 1194.38V1189.46C8.92 1189.22 8.82307 1188.98 8.65054 1188.81C8.478 1188.64 8.244 1188.54 8 1188.54H4.92ZM16 1188.54C15.5 1188.54 15.08 1188.95 15.08 1189.46V1192.54C15.08 1193.05 15.5 1193.46 16 1193.46H18.15V1192.23H16.62C16.45 1192.23 16.31 1192.09 16.31 1191.92V1190.08C16.31 1189.91 16.45 1189.77 16.62 1189.77H18.46C18.63 1189.77 18.77 1189.91 18.77 1190.08V1193.77C18.77 1193.94 18.63 1194.08 18.46 1194.08H15.08V1195.31H19.08C19.59 1195.31 20 1194.89 20 1194.38V1189.46C20 1188.95 19.59 1188.54 19.08 1188.54H16ZM9.85 1196.54C9.34 1196.54 8.92 1196.95 8.92 1197.46V1200.54C8.92 1201.05 9.34 1201.46 9.85 1201.46H12.92C13.43 1201.46 13.85 1201.05 13.85 1200.54V1197.46C13.85 1196.95 13.43 1196.54 12.92 1196.54H9.85ZM10.46 1197.77H12.31C12.3511 1197.77 12.392 1197.78 12.4303 1197.79C12.4685 1197.81 12.5032 1197.83 12.5323 1197.86C12.5614 1197.89 12.5842 1197.92 12.5992 1197.96C12.6143 1198 12.6214 1198.04 12.62 1198.08V1199.92C12.62 1200 12.5873 1200.08 12.5292 1200.14C12.4711 1200.2 12.3922 1200.23 12.31 1200.23H10.46C10.29 1200.23 10.15 1200.09 10.15 1199.92V1198.08C10.15 1198 10.1827 1197.92 10.2408 1197.86C10.2989 1197.8 10.3778 1197.77 10.46 1197.77ZM4.92 1196.54C4.41 1196.54 4 1196.95 4 1197.46V1200.54C4 1201.05 4.41 1201.46 4.92 1201.46H8.31V1200.23H5.54C5.37 1200.23 5.23 1200.09 5.23 1199.92V1198.08C5.23 1197.91 5.37 1197.77 5.54 1197.77H8.31V1196.54H4.92ZM15.38 1196.54C14.87 1196.54 14.46 1196.95 14.46 1197.46V1201.46H15.69V1198.08C15.69 1198 15.7227 1197.92 15.7808 1197.86C15.8389 1197.8 15.9178 1197.77 16 1197.77H16.62V1201.46H17.85V1197.77H18.77V1201.46H20V1196.54H15.38Z" fill="black"/>
</mask>
<g mask="url(#mask0_7_216)">
<path d="M342 212.59C309.31 212.59 280.62 282.9 280.62 342C280.62 377.16 310.19 401.11 342 401.11C376.61 401.11 413.46 378.34 413.46 342C413.46 284.08 375.73 212.59 342 212.59Z" stroke="#E54666" stroke-width="2"/>
<path d="M1118.08 0C1252.73 91.37 1273.5 102.75 1368 232.07C1398.46 273.75 1368 287.03 1368 342C1368 513 1368 513 1368 684C1368 855 1368 855 1368 1026C1368 1109.68 1399.02 1120.97 1368 1193.36C1325.74 1291.97 1221.43 1284.52 1221.43 1368C1221.43 1442.6 1331.06 1423.33 1368 1509.52C1404.35 1594.33 1368 1609.76 1368 1710C1368 1813.82 1390.61 1819.99 1368 1917.64C1351.01 1990.99 1288.8 1978.73 1288.8 2052C1288.8 2216.91 1328.4 2223 1368 2394C1368 2565 1368 2565 1368 2736C1368 2907 1368 2907 1368 3078C1368 3249 1368 3249 1368 3420C1368 3539.92 1413.39 3565.11 1368 3659.84C1331.45 3736.11 1204.13 3705.77 1204.13 3762C1204.13 3823.51 1326.78 3809.3 1368 3895.32C1408.72 3980.3 1368 3999.66 1368 4104C1368 4229.64 1386.26 4234.47 1368 4355.27C1360.41 4405.47 1316.3 4397.01 1316.3 4446C1316.3 4548.23 1351.82 4550.69 1368 4657.71C1377.67 4721.69 1368 4722.85 1368 4788C1368 4838.67 1390.14 4889.33 1368 4889.33C1335.42 4889.33 1323.87 4819.69 1258.56 4788C1152.87 4736.72 1138.31 4723.4 1026 4723.4C965.03 4723.4 935.45 4732.24 912 4788C849.95 4935.54 852.71 4959.4 855 5130C857.3 5301.4 863.39 5312.48 921.19 5472C948.89 5548.46 974.34 5601.96 1026 5601.96C1076.73 5601.96 1070.59 5532.24 1125.97 5472C1241.59 5346.24 1297.11 5229.97 1368 5229.97C1418.13 5229.97 1368 5350.99 1368 5472C1368 5643 1368 5643 1368 5814C1368 5969.45 1378.84 5973.2 1368 6124.91C1366.62 6144.2 1348.61 6137.07 1343.57 6156C1298.96 6323.61 1260.08 6339.66 1268.71 6498C1272.29 6563.73 1349.07 6538.94 1368 6604.14C1398.72 6709.94 1368 6722.07 1368 6840C1368 7011 1368 7011 1368 7182C1368 7353 1368 7353 1368 7524C1368 7695 1368 7695 1368 7866C1368 8037 1368 8037 1368 8208C1368 8379 1368 8379 1368 8550C1368 8721 1368 8721 1368 8892C1368 9063 1368 9063 1368 9234C1368 9405 1368 9405 1368 9576C1368 9747 1368 9747 1368 9918C1368 10089 1368 10089 1368 10260C1197 10260 1197 10260 1026 10260C855 10260 855 10260 684 10260C594.43 10260 531.65 10318.7 504.86 10260C453.59 10147.7 542.02 10086.9 527.87 9918C513.37 9744.9 510.72 9735.58 447.56 9576C417.79 9500.77 408.85 9448.39 342 9448.39C222.48 9448.39 117.3 9468.65 74.81 9576C24.37 9703.45 112.34 9747.81 156.13 9918C200.33 10089.8 296.54 10159.8 250.8 10260C218.47 10330.8 53.05 10332.3 0 10260C-72.35 10161.3 0 10089 0 9918C0 9747 0 9747 0 9576C0 9519 -13.63 9516.53 0 9462C29.12 9345.53 85.5 9334.88 85.5 9234C85.5 9190.58 11.6 9219.8 0 9173.39C-31.15 9048.8 0 9032.69 0 8892C0 8721 0 8721 0 8550C0 8379 0 8379 0 8208C0 8120.42 -22.94 8114.27 0 8032.83C25.23 7943.27 96.34 7948.18 96.34 7866C96.34 7790.42 23.04 7799.08 0 7717.3C-25.13 7628.08 0 7620.65 0 7524C0 7353 0 7353 0 7182C0 7011 0 7011 0 6840C0 6669 0 6669 0 6498C0 6327 0 6327 0 6156C0 5985 0 5985 0 5814C0 5643 0 5643 0 5472C0 5301 0 5301 0 5130C0 4959 0 4959 0 4788C0 4617 0 4617 0 4446C0 4299.43 -78.21 4205.45 0 4152.86C92.79 4090.47 178.5 4230.69 342 4216.03C451.03 4206.26 545.06 4161.58 545.06 4104C545.06 4045.4 452.12 3994.88 342 3983.67C179.59 3967.15 93.79 4109.33 0 4048.54C-77.21 3998.5 0 3905.27 0 3762C0 3591 0 3591 0 3420C0 3249 0 3249 0 3078C0 2934.73 -77.94 2854.41 0 2791.46C93.06 2716.29 189.65 2824.76 342 2801.77C373.41 2797.03 367.52 2768.48 367.52 2736C367.52 2708.02 368.93 2691.58 342 2680.84C185.17 2618.29 110.18 2681.84 0 2589.43C-60.82 2538.42 0 2491.72 0 2394C0 2223 0 2223 0 2052C0 1881 0 1881 0 1710C0 1539 0 1539 0 1368C0 1197 0 1197 0 1026C0 868.68 -4.54 867.88 0 711.36C0.42 696.88 9.91 696.64 9.91 684C9.91 677.78 0.21 680.73 0 673.64C-4.75 509.73 0 507.82 0 342C0 171 -85.5 85.5 0 0C85.5 -85.5 171 0 342 0C513 0 513 0 684 0C855 0 855 0 1026 0C1072.04 0 1081.73 -24.67 1118.08 0Z" stroke="#E54666" stroke-width="2"/>
<path d="M684 583.68C632.86 583.68 599.46 627.11 599.46 684C599.46 781.77 625.26 893 684 893C755.02 893 858.98 772.89 858.98 684C858.98 618.23 762.62 583.68 684 583.68Z" stroke="#E54666" stroke-width="2"/>
<path d="M684 1539C622.69 1558.77 658.09 1627.59 658.09 1710C658.09 1731.28 662.82 1742.66 684 1746.38C846.77 1774.96 861 1787.76 1026 1774.6C1089 1769.57 1140 1750.62 1140 1710C1140 1658.99 1099.48 1618.91 1026 1591.35C871.48 1533.41 806.65 1499.45 684 1539Z" stroke="#E54666" stroke-width="2"/>
<path d="M1026 2660.93C983.61 2660.93 949.05 2696.81 949.05 2736C949.05 2778.95 982.75 2825.22 1026 2825.22C1080.42 2825.22 1144.38 2778.22 1144.38 2736C1144.38 2696.08 1081.27 2660.93 1026 2660.93Z" stroke="#E54666" stroke-width="2"/>
<path d="M-0.000221252 8.54999C45.2398 8.54999 66.3198 189.53 171 342C237.32 438.59 259.32 421.6 342 506.67C425.51 592.6 503.39 587.52 503.39 684C503.39 809.19 430.6 950 342 950C245.82 950 242.53 813.01 133.83 684C71.5298 610.05 32.7398 627.76 -0.000221252 544.09C-34.1702 456.76 -0.000221252 443.05 -0.000221252 342C-0.000221252 175.27 -40.2602 8.54999 -0.000221252 8.54999Z" stroke="#E54666" stroke-width="2"/>
<path d="M541.07 342C438.8 185.94 336.73 94.44 376.2 -7.62939e-06C408.2 -76.56 530.1 -7.62939e-06 684 -7.62939e-06C769.5 -7.62939e-06 782.57 -33.43 855 -7.62939e-06C953.57 45.5 941.08 78.31 1026 157.85C1123.64 249.31 1220.11 239.33 1220.11 342C1220.11 475.04 1154.35 598.71 1026 629.28C886.29 662.55 844.81 564.94 684 469.68C602.34 421.3 592.7 420.78 541.07 342Z" stroke="#E54666" stroke-width="2"/>
<path d="M771.49 1026C794.13 861.09 889.85 722 1026 722C1178.04 722 1337.18 864.26 1347.88 1026C1358.55 1187.26 1209.06 1197.63 1068.75 1368C1048.12 1393.06 1051.67 1416.86 1026 1416.86C985.96 1416.86 964.1 1409.11 937.33 1368C836.84 1213.68 749.79 1184.09 771.49 1026Z" stroke="#E54666" stroke-width="2"/>
<path d="M3.43323e-05 1102C105.95 1102 171 1235 342 1368C435.27 1539 427.24 1544.03 528.55 1710C598.24 1824.18 575.61 1893.53 684 1928.3C824.34 1973.33 876.7 1833.73 1026 1869.6C1134.1 1895.58 1154.8 1941.3 1198.8 2052C1259.01 2203.5 1283.25 2251.35 1234.41 2394C1196.85 2503.68 1125.48 2469.92 1026 2556.66C929.36 2640.92 842.17 2642.37 842.17 2736C842.17 2838.61 924.43 2853.08 1026 2949.13C1105.26 3024.08 1119.5 3008.03 1203.84 3078C1290.5 3149.9 1323.13 3139.38 1368 3232.87C1405.21 3310.38 1368 3326.43 1368 3420C1368 3484.4 1400.45 3548.81 1368 3548.81C1313.45 3548.81 1274.34 3491.92 1194 3420C1103.34 3338.85 1116.72 3242.67 1026 3242.67C918.72 3242.67 798 3312.83 798 3420C798 3572.5 1055.78 3632.05 1026 3762C998.78 3880.77 860.03 3901.15 684 3917.45C518.03 3932.82 515.97 3850.76 342 3825.33C173.97 3800.77 147.14 3844.71 3.43323e-05 3817.46C-23.86 3813.04 3.43323e-05 3789.73 3.43323e-05 3762C3.43323e-05 3591 3.43323e-05 3591 3.43323e-05 3420C3.43323e-05 3249 3.43323e-05 3249 3.43323e-05 3078C3.43323e-05 2992.5 -50.37 2907 3.43323e-05 2907C103.94 2907 178.38 2972.8 308.63 3078C349.38 3110.91 324.93 3183.23 342 3183.23C359.15 3183.23 359.11 3130.47 377.08 3078C435.68 2906.86 503.87 2903.58 495.13 2736C486.33 2567.09 427.26 2560.69 342 2405.03C333.6 2389.69 325.2 2398.48 307.8 2394C154.2 2354.49 83.85 2410.22 3.43323e-05 2317.05C-70.05 2239.22 3.43323e-05 2184.52 3.43323e-05 2052C3.43323e-05 1891.36 -8.28997 1888.27 3.43323e-05 1730.73C0.710034 1717.27 18 1722.58 18 1710C18 1674.21 2.04003 1672.81 3.43323e-05 1634C-6.95997 1501.81 3.43323e-05 1501 3.43323e-05 1368C3.43323e-05 1235 -65.05 1102 3.43323e-05 1102Z" stroke="#E54666" stroke-width="2"/>
<path d="M1307.65 1710C1307.65 1683.2 1349.83 1656.93 1368 1656.93C1380 1656.93 1368 1683.47 1368 1710C1368 1737.48 1380.14 1764.96 1368 1764.96C1349.97 1764.96 1307.65 1737.22 1307.65 1710Z" stroke="#E54666" stroke-width="2"/>
<path d="M342 2042.76C336.05 2042.76 331.31 2045.13 331.31 2052C331.31 2135.25 334.59 2223 342 2223C349.44 2223 361 2132.26 361 2052C361 2042.14 350.9 2042.76 342 2042.76Z" stroke="#E54666" stroke-width="2"/>
<path d="M1308.81 2736C1308.81 2690.53 1351.89 2645.47 1368 2645.47C1381.48 2645.47 1368 2690.73 1368 2736C1368 2782.64 1381.55 2829.27 1368 2829.27C1351.95 2829.27 1308.81 2782.43 1308.81 2736Z" stroke="#E54666" stroke-width="2"/>
<path d="M-0.000141144 222.3C16.2399 222.3 61.3799 285.67 61.3799 342C61.3799 381.79 17.3999 414.55 -0.000141144 414.55C-13.2901 414.55 -0.000141144 378.27 -0.000141144 342C-0.000141144 282.15 -14.4501 222.3 -0.000141144 222.3Z" stroke="#E54666" stroke-width="2"/>
<path d="M668.69 342C668.69 293.47 654.29 239.4 684 239.4C735.23 239.4 830.57 310.1 830.57 342C830.57 368.24 755.03 355.68 684 355.68C674.09 355.68 668.69 351.61 668.69 342Z" stroke="#E54666" stroke-width="2"/>
<path d="M257.74 684C257.74 643.86 302.15 612.22 342 612.22C376.94 612.22 407.33 644.95 407.33 684C407.33 734.67 377.86 791.67 342 791.67C303.07 791.67 257.74 733.58 257.74 684Z" stroke="#E54666" stroke-width="2"/>
<path d="M970.33 1026C970.33 990.37 996.22 959.5 1026 959.5C1059.26 959.5 1096.41 989.57 1096.41 1026C1096.41 1070.7 1058.63 1121.76 1026 1121.76C995.59 1121.76 970.33 1071.5 970.33 1026Z" stroke="#E54666" stroke-width="2"/>
<path d="M243 1710C243 1658.09 299.31 1605.5 342 1605.5C377.31 1605.5 399 1657.92 399 1710C399 1761.01 377.18 1811.68 342 1811.68C299.18 1811.68 243 1761.18 243 1710Z" stroke="#E54666" stroke-width="2"/>
<path d="M-0.00023222 1989.82C18.9098 1989.82 64.1298 2022.44 64.1298 2052C64.1298 2079.18 19.7398 2103.3 -0.00023222 2103.3C-12.3302 2103.3 -0.00023222 2077.65 -0.00023222 2052C-0.00023222 2020.91 -13.1602 1989.82 -0.00023222 1989.82Z" stroke="#E54666" stroke-width="2"/>
<path d="M772.26 2052C884.47 1987.42 909.84 1964.6 1026 1964.6C1078.11 1964.6 1099.06 1996.11 1108.8 2052C1136.47 2210.81 1133.22 2237.28 1100.81 2394C1091.82 2437.48 1060.62 2420 1026 2452.39C877.86 2591 735.3 2587.94 735.3 2736C735.3 2898.26 880 2905.23 1026 3073.04C1028.77 3076.23 1032.84 3075.32 1032.84 3078C1032.84 3080.96 1030.22 3082.36 1026 3084.33C855.8 3163.79 828.02 3242.98 684 3240.86C613.17 3239.82 607.04 3166.43 596.31 3078C576.41 2914 636.12 2904.95 622.75 2736C609.06 2562.95 524.95 2555.83 542.2 2394C555.57 2268.55 608.13 2274.22 684 2161.44C723.16 2103.22 713.47 2085.84 772.26 2052Z" stroke="#E54666" stroke-width="2"/>
</g>
</g>
<defs>
<clipPath id="clip0_7_216">
<rect width="1366" height="10000" fill="white"/>
</clipPath>
</defs>
</svg>
